<svg xmlns="http://www.w3.org/2000/svg" width="60" height="60" fill="none"><path fill="#754E29" d="m25.556.154-.014-.02-.037.029C11.17 1.687 0 13.828 0 28.589c0 6.61 2.242 12.696 6.005 17.54v.005h.006a28.528 28.528 0 0 0 8.756 7.495 28.491 28.491 0 0 0 11.003 3.414c.134-1.36.466-2.784.963-4.222a24.197 24.197 0 0 1-16.08-7.822c.158-.686.229-1.484.286-2.176l.026-.337c.051-.63.1-1.235.18-1.847.2-1.507.542-2.513 1.076-3.082.685-.735 1.388-.858 2.858-1.118l.266-.048c.754-.132 1.762-.335 2.733-.864 1.036-.566 1.913-1.43 2.572-2.701.666-1.281.617-2.602.434-3.645a20.02 20.02 0 0 0-.656-2.468l-.132-.423c-.585-1.91-.656-2.839-.174-3.573.526-.8 1.245-.984 3.118-1.47l.243-.06c1.902-.492 4.477-1.315 5.968-4.497 1.616-3.445.705-7.33-.286-9.966a25.408 25.408 0 0 0-1.065-2.43c.152-.006.303-.006.454-.006a24.136 24.136 0 0 1 12.95 3.745 119.92 119.92 0 0 1-2.102 2.716c-1.799 2.25-3.826 4.566-5.208 5.604a3.964 3.964 0 0 0-1.388 1.852 4.172 4.172 0 0 0-.157 2.099c.2 1.19.83 2.304 1.39 3.156.466.712 1.014 1.43 1.474 2.035l.314.41c.266.357.485.651.648.906.083.123.143.223.183.297.04.071.054.109.057.111.114.315.237.83.38 1.544l.063.303c1.267-.566 2.64-1 4.111-1.272a14.787 14.787 0 0 0-.536-2.058c-.314-.85-.997-1.761-1.488-2.413-.123-.163-.247-.325-.371-.486a30.656 30.656 0 0 1-1.254-1.73c-.442-.674-.657-1.14-.728-1.424 1.856-1.435 4.135-4.105 5.854-6.252a107.34 107.34 0 0 0 2.161-2.799 24.25 24.25 0 0 1 7.881 16.633 34.76 34.76 0 0 1 4.312.603C56.717 12.413 44.085 0 28.554 0c-1.01 0-2.013.051-2.998.154Zm-18.6 39.53a24.333 24.333 0 0 1 6.556-30.17 24.267 24.267 0 0 1 9.994-4.7 21.775 21.775 0 0 1 1.653 3.42c.897 2.387 1.257 4.834.417 6.632-.642 1.367-1.556 1.753-3.164 2.167l-.462.115c-1.52.368-3.915.946-5.406 3.21-1.716 2.607-.87 5.463-.342 7.19l.171.55c.228.728.4 1.286.491 1.817.109.62.029.847-.011.93-.286.551-.571.777-.823.914-.314.172-.725.286-1.433.41-.114.022-.24.042-.371.062-1.322.217-3.424.563-5.134 2.401-1.388 1.487-1.893 3.46-2.136 5.052Zm21.618 18.08c.171-2.759 1.414-6.124 3.521-9.295a22.944 22.944 0 0 1 2.53-3.482 25.394 25.394 0 0 1 12.838-7.861 1.429 1.429 0 0 0 1.04-1.736 1.43 1.43 0 0 0-1.734-1.04 28.251 28.251 0 0 0-14.291 8.75 26.919 26.919 0 0 0-2.074 2.697 10.194 10.194 0 0 1-.422-2.914c0-2.621 1.333-5.469 3.446-7.727a15.202 15.202 0 0 1 9.123-4.672c7.996-1.058 12.958-.171 15.885.65a2.141 2.141 0 0 1 1.538 1.732 2.146 2.146 0 0 1-.935 2.121c-.163.109-.426.372-.743.972-.374.757-.68 1.547-.913 2.359-.249.812-.486 1.69-.743 2.644l-.165.606c-.317 1.172-.669 2.43-1.091 3.677-.834 2.464-2.01 5.094-3.99 7.113-2.052 2.095-4.84 3.402-8.563 3.402-3.795 0-6.444-1.541-8.138-3.314-1.153 2.116-1.753 4.108-1.844 5.578a2.145 2.145 0 0 1-2.265 1.972 2.14 2.14 0 0 1-2.01-2.232Z"/></svg>