<svg xmlns="http://www.w3.org/2000/svg" width="66" height="65" fill="none"><path stroke="#754E29" stroke-linecap="round" stroke-linejoin="round" stroke-width="4.167" d="M29.763 3.749A7.17 7.17 0 0 1 33 2.983a7.17 7.17 0 0 1 3.237.766l25.05 12.705c.519.264.952.65 1.253 1.117.301.468.46 1 .46 1.543v25.067a5.69 5.69 0 0 1-.922 3.086 6.43 6.43 0 0 1-2.508 2.234l-23.333 11.84a7.17 7.17 0 0 1-3.237.767 7.17 7.17 0 0 1-3.237-.766L6.43 49.502a6.43 6.43 0 0 1-2.508-2.233A5.69 5.69 0 0 1 3 44.184v-25.07c0-.542.159-1.075.46-1.543a3.214 3.214 0 0 1 1.253-1.117l25.05-12.705Z"/><path stroke="#754E29" stroke-linejoin="round" stroke-width="4.167" d="m3 17.325 30 15.22m0 0 30-15.22m-30 15.22v30.438"/><path stroke="#754E29" stroke-linecap="round" stroke-linejoin="round" stroke-width="4.167" d="m18 24.935 30-15.22M13 33.543l10 5.089"/></svg>