<svg xmlns="http://www.w3.org/2000/svg" width="22" height="22" fill="none"><path fill="#151618" fill-rule="evenodd" d="M19 0a3 3 0 0 1 3 3v16a3 3 0 0 1-3 3H3a3 3 0 0 1-3-3V3a3 3 0 0 1 3-3h16Zm0 2a1 1 0 0 1 1 1v16a1 1 0 0 1-1 1h-5v-7h2.076a1 1 0 0 0 .949-.684l.443-1.329a.75.75 0 0 0-.712-.987H14V8c0-.5.5-1 1-1h2a1 1 0 0 0 1-1v-.686a.71.71 0 0 0-.519-.695C16.171 4.273 15 4.273 15 4.273c-2.5 0-4 1.727-4 3.227V10H9a1 1 0 0 0-1 1v1a1 1 0 0 0 1 1h2v7H3a1 1 0 0 1-1-1V3a1 1 0 0 1 1-1h16Z" clip-rule="evenodd"/></svg>