<svg xmlns="http://www.w3.org/2000/svg" xmlns:xlink="http://www.w3.org/1999/xlink" width="551" height="550"><g transform="translate(0 302.256)"><use xlink:href="#a" fill="#3CC"/><use xlink:href="#a" fill="url(#b)"/></g><use xlink:href="#c" fill="#FFF" transform="translate(35.44 346.072)"/><use xlink:href="#d" fill="#333" transform="translate(5.36)"/><defs><path id="a" fill-rule="evenodd" d="M523.87 105.897c8.03 11.51 8.84 29.649.31 43.711-7.61 12.557-53.19 60.743-68.02 76.227-12.85 13.449-30.21 26.913-47.29 26.913H51.24c-48.33 0-51.24-16.4-51.24-53.49V48.824C0 10.948 11.16 0 44.17 0h364.7c17.08 0 32.28 8.732 49.74 26.494 14.81 15.08 59.1 70.547 65.26 79.403Z"/><path id="c" fill-rule="evenodd" d="M45.632 14.357v-.99c0-4.84-.41-9.619-8.32-9.619H7.422c-6.95 0-7.39 3.846-7.39 9.82v39.758c14.55-20.829 30.68-30.504 45.6-38.969Zm200.5 143.66v-2.134h.02V60.188c0-40.128-17.626-60.19-52.88-60.186a52.661 52.661 0 0 0-27.72 7.588c-8.39 5.062-16.45 12.133-24.18 21.211-3.8-9.866-9.533-17.133-17.2-21.8-7.666-4.666-17.593-7-29.78-7-14.12 0-30.52 4.948-42.15 14.526-2.61 2.608-52.21 41.691-52.21 81.83v61.263c0 1.949-.94 9.34 7.34 9.34h31.11c9.67 0 8.72-6.34 8.72-8.948V58.93c5.25-6.974 15.99-24.2 33.42-24.2 6.69 0 11.507 2.267 14.45 6.8 2.944 4.533 4.424 12.134 4.44 22.8v77.387h-.04v15.9c0 1.949-.94 9.34 7.33 9.34h30.72c9.68 0 8.73-6.34 8.73-8.948v-2.134h.04V58.93c5.63-6.974 16.84-24.2 33.41-24.2 6.82 0 11.737 2.267 14.75 6.8 3.014 4.533 4.517 12.134 4.51 22.8v77.387h-.03v15.9c0 1.949-.93 9.34 7.34 9.34h31.12c9.69 0 8.74-6.336 8.74-8.944v.004Zm171.36-38.907c-11.07 29.793-37.57 46.443-70.4 46.443-47.57 0-78.99-32.443-78.99-81.1 0-48.072 32.61-82.918 77.5-82.918 44.4 0 74.19 30.954 76.08 80.815.24 6.371-1.62 12-9.57 12h-100.93c.6 26.737 13.48 41.159 36.21 41.159 13.86 0 22.08-5.984 29.23-17.711 3.12-5.1 9.49-4.819 9.49-4.819h25.99c4.25-.007 6.13 4.142 5.39 6.127v.004Zm-71.89-86.64c-18.86 0-32.02 13.216-34.42 34.856h67.63c-1.8-18.932-11.98-34.86-33.21-34.86v.004Z"/><path id="d" fill-rule="evenodd" d="M176.262 31.007a55.568 55.568 0 0 0-14.49-15.5 71.582 71.582 0 0 0-18.84-9.46 106.458 106.458 0 0 0-22.95-4.773A264.832 264.832 0 0 0 93.122.002h-78.62C7.432.002.022 4.649.022 13.414v127.6c9.96 21.266 29.36 43.843 51.41 54.633v-25.312c0-13.353 10.05-16.337 14.2-16.337h23.25c32.02 0 56.456-6.73 73.31-20.19 16.85-13.441 25.276-33.408 25.28-59.9a93.966 93.966 0 0 0-2.64-22.724 70.565 70.565 0 0 0-8.57-20.177Zm-45.81 65.53a27.544 27.544 0 0 1-11.63 10.937 46.954 46.954 0 0 1-16.82 4.461c-6.35.567-12.91.851-19.68.852h-22.09c-5.4 0-8.8-4.4-8.8-10.9V49.721c0-5.85 3.81-8.305 8.38-8.305h22.51c7.33 0 14.206.212 20.63.636a45.136 45.136 0 0 1 16.71 4.039 25.06 25.06 0 0 1 11.11 10.409c2.68 4.666 4.02 11.25 4.02 19.75 0 8.636-1.447 15.399-4.34 20.288Zm-79.02 107.35c-24.25-9.7-40.51-21.276-51.41-32.751v61.6s-.9 10.046 8.87 10.046h34.3c9.4 0 8.24-10.046 8.24-10.046v-28.849Zm486.05-136.764h-30.78c-6.26 0-10.38 2.632-12.86 9.518-2.5 6.887-35.11 97.841-35.11 97.841s-31.21-89.076-33.66-95.973c-2.45-6.897-6.49-11.386-13.76-11.386h-28.28c-9.97 0-9.97 7.845-8.74 10.956 1.01 2.514 39.74 108.778 54.49 149.256 3.48 9.558 4.85 12.433 4.96 15.975.11 3.542-3.49 10.975-5.97 15.24a38.895 38.895 0 0 1-3.92 5.507c28.92-8.667 62.25-40.116 79.49-74.187 17.04-47.483 39.52-110.206 40.49-113.415 1.57-5.194 1.55-9.332-6.35-9.332Zm-135.91 205.973a73.123 73.123 0 0 1-7.99-.577c-3.25-.431-9.32.176-9.32 5.5v23.791c0 9.078 4.34 9.684 6.72 10.222a100.723 100.723 0 0 0 21.85 2.113c9.72 0 18.18-1.771 25.38-5.312a60.92 60.92 0 0 0 19.05-14.761 104.494 104.494 0 0 0 14.7-22.509c4.3-8.706 8.426-18.299 12.38-28.779 0 0 1.69-4.734 4.48-12.492-8.49 8.576-48.5 46.561-87.25 42.804Zm-46.23-177.732a41.26 41.26 0 0 0-6.76-10.936 47.128 47.128 0 0 0-9.53-8.178 69.645 69.645 0 0 0-12.05-6.27 89.799 89.799 0 0 0-13.23-4.031 107.03 107.03 0 0 0-15.54-2.23c-5.65-.421-12-.633-19.05-.636-46.63 0-73.18 14.751-79.65 44.255-2.11 9.156 6.94 9.694 6.94 9.694h28.68c7.49 0 7.17-2.416 10.8-9.2a20.207 20.207 0 0 1 6.78-9.283c5.51-4.246 13.763-6.368 24.76-6.368 10.58 0 18.267 2.05 23.06 6.153 4.793 4.102 7.613 10.333 8.46 18.694 0 9.694-3.02 16.16-14.72 16.16-28.55-1.037-59.22 2.2-76.5 12.11s-27.04 29.3-27.04 50.114c0 8.49 1.517 15.924 4.55 22.3a44.83 44.83 0 0 0 12.69 16.033 54.507 54.507 0 0 0 19.36 9.665 89.565 89.565 0 0 0 24.54 3.189c12.41 0 23.377-1.559 32.9-4.676 9.52-3.111 24.25-13.372 26.13-14.869v5.476c0 5.419 1.64 10.251 8.1 10.251h33.36c6.75 0 8.25-4.832 8.25-10.78V129.142a128.51 128.51 0 0 0-1.26-19.114 60.284 60.284 0 0 0-4.03-14.664Zm-45.48 100.854s-8.61 17.911-39.35 17.911c-8.46 0-15.337-1.911-20.63-5.732-5.294-3.822-7.94-9.769-7.94-17.843 0-10.488 4.303-17.889 12.91-22.205 8.6-4.314 25.82-6.779 38.72-6.476 12.9.303 16.29 8.462 16.29 14.1v20.249-.004Z"/><linearGradient id="b" x1="0" x2="1" y1="0" y2="0" gradientTransform="matrix(-69.4324 419.772 -880.644 -145.954 705.443 72.977)" gradientUnits="userSpaceOnUse"><stop offset=".472" stop-color="#0CC"/><stop offset="1" stop-color="#39F"/></linearGradient></defs></svg>