<svg xmlns="http://www.w3.org/2000/svg" width="22" height="18" fill="none"><path fill="#0F0F0F" fill-rule="evenodd" d="M18.783 1.203a4.88 4.88 0 0 0 .79-.24c.28-.115.51-.253.876-.486.307-.196.701-.213 1.025-.044a.96.96 0 0 1 .526.849c0 1.042-.135 1.897-.447 2.648-.262.633-.63 1.147-1.071 1.614-.186 3.243-1.16 5.79-2.648 7.72-1.543 2-3.595 3.28-5.759 3.998-2.157.715-4.436.875-6.478.633-2.029-.241-3.904-.889-5.21-1.869a.943.943 0 0 1-.307-1.138c.177-.403.613-.64 1.062-.578 1.285.177 2.523-.105 3.541-.508-.2-.105-.389-.219-.565-.336-.927-.62-1.676-1.46-2.012-2.11a.934.934 0 0 1-.004-.854.974.974 0 0 1 .3-.349C1.046 9.075.5 7.584.5 6.586c0-.297.142-.578.385-.76.102-.077.217-.133.338-.167a6.896 6.896 0 0 1-.24-.855C.717 3.563.741 2.162 1.03 1.048A.988.988 0 0 1 1.86.327c.404-.055.802.132 1.005.473C3.944 2.6 5.931 3.702 7.781 4.354c.87.307 1.675.502 2.279.622.13-1.177.47-2.148.994-2.919A4.58 4.58 0 0 1 13.74.17c1.783-.463 3.76.064 5.043 1.033Zm-9.035 5.68a18.866 18.866 0 0 1-2.654-.718c-1.357-.478-2.933-1.224-4.253-2.38.023.213.057.424.1.629.222 1.033.633 1.612 1.006 1.791a.95.95 0 0 1 .49 1.198c-.239.624-.869.675-1.441.537.46.666 1.288 1.33 2.668 1.552.477.076.828.47.836.936a.973.973 0 0 1-.804.96l-.87.169c.133.111.277.22.43.323.698.466 1.397.666 2.002.52.452-.108.923.099 1.134.5a.941.941 0 0 1-.252 1.177c-.644.517-1.396.932-2.15 1.276-.353.162-.749.321-1.178.461.33.068.674.124 1.029.166 1.77.21 3.741.069 5.584-.542 1.836-.609 3.534-1.679 4.804-3.325 1.268-1.644 2.153-3.92 2.272-7.01a.948.948 0 0 1 .292-.646c.45-.433.821-.93 1.004-1.522-.32.096-.68.18-1.11.259-.325.06-.66-.04-.894-.266-.765-.737-2.276-1.222-3.533-.896a2.584 2.584 0 0 0-1.533 1.081c-.412.608-.727 1.554-.727 2.99a.95.95 0 0 1-.33.716c-.498.434-1.336.178-1.921.064Z" clip-rule="evenodd"/></svg>