<svg xmlns="http://www.w3.org/2000/svg" width="24" height="18" fill="none"><path fill="#0F0F0F" fill-rule="evenodd" d="M9.496 4.132A1 1 0 0 0 8 5v8a1 1 0 0 0 1.496.868l7-4a1 1 0 0 0 0-1.736l-7-4ZM13.984 9 10 11.277V6.723L13.984 9Z" clip-rule="evenodd"/><path fill="#0F0F0F" fill-rule="evenodd" d="M0 9c0-3.75 0-5.625.955-6.939A5 5 0 0 1 2.06.955C3.375 0 5.251 0 9 0h6c3.75 0 5.625 0 6.939.955a5 5 0 0 1 1.106 1.106C24 3.375 24 5.251 24 9c0 3.75 0 5.625-.955 6.939a5 5 0 0 1-1.106 1.106C20.625 18 18.749 18 15 18H9c-3.75 0-5.625 0-6.939-.955A5 5 0 0 1 .955 15.94C0 14.625 0 12.749 0 9Zm9-7h6c1.92 0 3.198.003 4.167.108.932.1 1.337.276 1.596.465.255.185.479.409.664.664.189.259.364.664.465 1.596C21.997 5.802 22 7.08 22 9c0 1.92-.003 3.198-.108 4.167-.1.932-.276 1.337-.465 1.596-.185.255-.409.479-.664.664-.259.189-.664.364-1.596.465-.969.105-2.248.108-4.167.108H9c-1.92 0-3.198-.003-4.167-.108-.932-.1-1.337-.276-1.596-.465a3.003 3.003 0 0 1-.664-.664c-.189-.259-.364-.664-.465-1.596C2.003 12.198 2 10.92 2 9c0-1.92.003-3.198.108-4.167.1-.932.276-1.337.465-1.596a3 3 0 0 1 .664-.664c.259-.189.664-.364 1.596-.465C5.802 2.003 7.08 2 9 2Z" clip-rule="evenodd"/></svg>